<svg width="251" height="271" xmlns="http://www.w3.org/2000/svg" xmlns:xlink="http://www.w3.org/1999/xlink" xml:space="preserve" overflow="hidden"><g transform="translate(-3802 -1136)"><rect x="3883.5" y="1364.5" width="166" height="40.0002" stroke="#BFBFBF" stroke-width="4.58333" stroke-linecap="round" stroke-linejoin="round" stroke-miterlimit="10" fill="#F2F2F2"/><rect x="3884.5" y="1138.5" width="166" height="39.9999" stroke="#BFBFBF" stroke-width="4.58333" stroke-linecap="round" stroke-linejoin="round" stroke-miterlimit="10" fill="#F2F2F2"/><rect x="3804.5" y="1162.5" width="245" height="220" stroke="#BFBFBF" stroke-width="4.58333" stroke-linecap="round" stroke-linejoin="round" stroke-miterlimit="10" fill="#F2F2F2"/><rect x="3906" y="1244" width="140" height="37.0001" fill="#F2F2F2"/><rect x="4022.5" y="1154.5" width="26.9998" height="236" stroke="#BFBFBF" stroke-width="4.58333" stroke-linecap="round" stroke-linejoin="round" stroke-miterlimit="10" fill="#F2F2F2"/><rect x="3863" y="1177" width="157" height="40.9999" fill="#A6A6A6"/><rect x="3903" y="1183" width="136" height="29.0002" fill="#F2F2F2"/><rect x="3863" y="1226" width="157" height="40.9999" fill="#A6A6A6"/><rect x="3903" y="1232" width="136" height="28.9999" fill="#F2F2F2"/><rect x="3863" y="1275" width="157" height="40.9999" fill="#A6A6A6"/><rect x="3903" y="1281" width="136" height="28.9999" fill="#F2F2F2"/><rect x="3863" y="1324" width="157" height="40.9999" fill="#A6A6A6"/><rect x="3903" y="1330" width="136" height="28.9999" fill="#F2F2F2"/><rect x="3843" y="1211" width="42" height="25.0001" fill="#F2F2F2"/><rect x="3842" y="1259" width="42" height="24.9998" fill="#F2F2F2"/><rect x="3843" y="1307" width="42" height="25.0001" fill="#F2F2F2"/></g></svg>